<svg width="231" height="32" viewBox="0 0 231 32" fill="none" xmlns="http://www.w3.org/2000/svg">
<path d="M51.7739 22.3036H63.3536L57.7505 8.76509H57.377L51.7739 22.3036ZM61.8595 5.6549L72.5053 31.2682H67.1264L64.661 25.0478H50.4665L48.0011 31.2682H42.6222L53.268 5.6549H61.8595Z" fill="white"/>
<path d="M89.9041 28.7069V14.8025H85.2349C84.3882 14.8025 83.6037 14.9367 82.8816 15.205C82.1843 15.4489 81.5742 15.8514 81.0512 16.4125C80.5532 16.9735 80.1547 17.6932 79.8559 18.5713C79.582 19.4495 79.445 20.5106 79.445 21.7547C79.445 22.9988 79.582 24.0599 79.8559 24.9381C80.1547 25.8162 80.5532 26.5358 81.0512 27.0969C81.5742 27.658 82.1843 28.0726 82.8816 28.341C83.6037 28.5849 84.3882 28.7069 85.2349 28.7069H89.9041ZM85.2349 31.2682C83.5166 31.2682 81.9477 31.0487 80.5283 30.6096C79.1337 30.1705 77.9384 29.5363 76.9423 28.7069C75.9462 27.8775 75.1742 26.8774 74.6263 25.7065C74.1034 24.5356 73.8419 23.2183 73.8419 21.7547C73.8419 20.2911 74.1034 18.9738 74.6263 17.8029C75.1742 16.632 75.9462 15.6319 76.9423 14.8025C77.9384 13.9731 79.1337 13.3389 80.5283 12.8998C81.9477 12.4607 83.5166 12.2412 85.2349 12.2412H89.9041V5.6549H95.1337V31.2682H85.2349Z" fill="white"/>
<path d="M113.795 5.6549C115.662 5.6549 117.331 5.86225 118.8 6.27694C120.294 6.66724 121.552 7.25269 122.573 8.03328C123.594 8.78948 124.378 9.72864 124.926 10.8507C125.474 11.9485 125.748 13.2047 125.748 14.6196C125.748 16.0344 125.474 17.3029 124.926 18.425C124.378 19.5227 123.594 20.4618 122.573 21.2424C121.552 21.9986 120.294 22.5841 118.8 22.9988C117.331 23.3891 115.662 23.5842 113.795 23.5842H105.763V31.2682H100.347V5.6549H113.795ZM105.763 8.39919V20.8399H113.795C115.762 20.8399 117.281 20.3399 118.352 19.3397C119.447 18.3152 119.995 16.7418 119.995 14.6196C119.995 12.4973 119.447 10.9361 118.352 9.93599C117.281 8.91145 115.762 8.39919 113.795 8.39919H105.763Z" fill="white"/>
<path d="M143.883 14.8025H139.401C137.708 14.8025 136.413 15.2538 135.516 16.1564C134.62 17.0345 134.171 18.3518 134.171 20.1081V31.2682H128.942V20.1081C128.942 17.62 129.739 15.6929 131.333 14.3268C132.951 12.9364 135.267 12.2412 138.28 12.2412H143.883V14.8025Z" fill="white"/>
<path d="M156.185 29.6216C156.982 29.6216 157.729 29.4753 158.427 29.1826C159.124 28.8898 159.734 28.4385 160.257 27.8287C160.78 27.1945 161.191 26.3773 161.49 25.3771C161.813 24.377 161.975 23.1695 161.975 21.7547C161.975 20.3399 161.813 19.1324 161.49 18.1322C161.191 17.1321 160.78 16.3271 160.257 15.7173C159.734 15.083 159.124 14.6196 158.427 14.3268C157.729 14.0341 156.982 13.8878 156.185 13.8878C155.389 13.8878 154.642 14.0341 153.944 14.3268C153.247 14.6196 152.637 15.083 152.114 15.7173C151.591 16.3271 151.168 17.1321 150.844 18.1322C150.545 19.1324 150.396 20.3399 150.396 21.7547C150.396 23.1695 150.545 24.377 150.844 25.3771C151.168 26.3773 151.591 27.1945 152.114 27.8287C152.637 28.4385 153.247 28.8898 153.944 29.1826C154.642 29.4753 155.389 29.6216 156.185 29.6216ZM156.185 11.5094C157.854 11.5094 159.385 11.7411 160.78 12.2046C162.199 12.6437 163.407 13.3023 164.403 14.1805C165.399 15.0343 166.171 16.1076 166.719 17.4004C167.292 18.6689 167.578 20.1203 167.578 21.7547C167.578 23.4135 167.292 24.8771 166.719 26.1455C166.171 27.414 165.399 28.4873 164.403 29.3655C163.407 30.2193 162.199 30.8657 160.78 31.3048C159.385 31.7683 157.854 32 156.185 32C154.492 32 152.948 31.7683 151.554 31.3048C150.159 30.8657 148.964 30.2193 147.968 29.3655C146.971 28.4873 146.187 27.414 145.614 26.1455C145.066 24.8771 144.793 23.4135 144.793 21.7547C144.793 20.1203 145.066 18.6689 145.614 17.4004C146.187 16.1076 146.971 15.0343 147.968 14.1805C148.964 13.3023 150.159 12.6437 151.554 12.2046C152.948 11.7411 154.492 11.5094 156.185 11.5094Z" fill="white"/>
<path d="M172.833 12.6071C172.833 10.2165 173.592 8.3382 175.111 6.97216C176.63 5.60612 178.797 4.9231 181.611 4.9231C182.557 4.9231 183.504 5.04506 184.45 5.289C185.421 5.53294 186.28 5.83786 187.027 6.20376L185.907 8.58214C185.434 8.31381 184.848 8.06987 184.151 7.85033C183.454 7.60639 182.732 7.48443 181.985 7.48443C181.462 7.48443 180.963 7.582 180.49 7.77715C180.017 7.9723 179.594 8.27722 179.22 8.69191C178.872 9.08221 178.585 9.60667 178.361 10.2653C178.162 10.9239 178.062 11.7045 178.062 12.6071V12.973H183.852V15.5343H178.062V31.2682H172.833V15.5343H169.284V12.973H172.833V12.6071Z" fill="white"/>
<path d="M198.044 29.4387C199.264 29.4387 200.397 29.2313 201.443 28.8167C202.514 28.402 203.56 27.8165 204.581 27.0603L206.075 29.2557C205.602 29.6704 205.041 30.0485 204.394 30.39C203.771 30.7316 203.087 31.0243 202.339 31.2682C201.617 31.4878 200.858 31.6585 200.061 31.7805C199.264 31.9268 198.467 32 197.67 32C195.902 32 194.283 31.7683 192.814 31.3048C191.37 30.8657 190.137 30.2193 189.116 29.3655C188.095 28.4873 187.298 27.414 186.726 26.1455C186.178 24.8771 185.904 23.4135 185.904 21.7547C185.904 20.1203 186.165 18.6689 186.688 17.4004C187.236 16.1076 187.983 15.0343 188.929 14.1805C189.901 13.3023 191.046 12.6437 192.366 12.2046C193.686 11.7411 195.143 11.5094 196.736 11.5094C198.231 11.5094 199.638 11.7289 200.957 12.168C202.277 12.6071 203.423 13.2535 204.394 14.1073C205.365 14.9367 206.137 15.949 206.71 17.1443C207.283 18.3396 207.569 19.6934 207.569 21.2058V23.7672H191.619C191.918 25.7918 192.627 27.2433 193.748 28.1214C194.894 28.9996 196.326 29.4387 198.044 29.4387ZM196.736 13.8878C196.014 13.8878 195.342 14.0219 194.719 14.2902C194.097 14.5586 193.549 14.9855 193.076 15.5709C192.627 16.1564 192.254 16.9126 191.955 17.8395C191.681 18.7665 191.532 19.8886 191.507 21.2058H201.966C201.966 19.9374 201.817 18.8397 201.518 17.9127C201.219 16.9857 200.82 16.2295 200.322 15.6441C199.849 15.0343 199.289 14.5952 198.641 14.3268C198.019 14.0341 197.384 13.8878 196.736 13.8878Z" fill="white"/>
<path d="M222.712 21.6449L230.93 31.2682H224.953L219.724 25.1576L214.494 31.2682H208.517L216.735 21.6449L208.704 12.2412H214.681L219.724 18.1688L224.766 12.2412H230.743L222.712 21.6449Z" fill="white"/>
<rect x="0.776012" y="4.9231" width="12.3077" height="12.3077" rx="3.69231" fill="#484AD7"/>
<rect x="0.776012" y="19.6924" width="12.3077" height="12.3077" rx="3.69231" fill="#484AD7"/>
<rect x="15.5452" y="19.6924" width="12.3077" height="12.3077" rx="3.69231" fill="#484AD7"/>
<circle cx="24.1606" cy="8.61539" r="8.61539" fill="white"/>
</svg>
